# xmcd
#
# Track frame offsets:
#	150
#	11653
#	25217
#	36685
#	49946
#	61939
#	74805
#	86327
#	96631
#	106558
#	117096
#	126925
#	137287
#	150354
#	163778
#	174358
#	186319
#	198443
#	212008
#	229252
#	242168
#	250829
#	262994
#	274247
#	292694
#	301246
#	317371
#	330751
#	347842
#
# Disc length: 4767 seconds
#
# Revision: 0
# Processed by: cddbd v1.5.2PL0 Copyright (c) Steve Scherf et al.
# Submitted via: audiograbber 1.83.01
#
DISCID=96129d1d
DTITLE=Various Artist - A Taste Of Bear Family Records
DYEAR=2012
DGENRE=Mixed Styles
TTITLE0=Charlie Walker - Honky Tonk Women
TTITLE1=The Louvin Brothers - Satan Is Real
TTITLE2=Buddy Covelle - Lorraine
TTITLE3=Big Joe Turner - Boogie Woogie Country Girl
TTITLE4=Short Buckle Roark and Family - Now I Truly Understand
TTITLE5=Cindy and Bert - Der Hund von Baskerville
TTITLE6=Jerry Lee Lewis - Home Away From Home
TTITLE7=Ronnie Hawkins - Forty Days
TTITLE8=The Maddox Brothers and Rose - Ugly And Slouchy
TTITLE9=Wynn Stewart - Playboy
TTITLE10=Roy Lee Johnson - So Anna Just Loves Me
TTITLE11=Bob Wills and The Texas Playboys - Bubbles In My Beer
TTITLE12=Gene Vincent - Bird Doggin'
TTITLE13=Rev J.M. Gates - Smoking Woman In The Street
TTITLE14=Waylon Jennings - Mental Revenge
TTITLE15=Jim and Jesse - Johnny B. Goode
TTITLE16=The Lords - Rain Dreams
TTITLE17=Narval Felts - When Your Good Love Was Mine
TTITLE18=Al Casey and David Grisman - Sidewinder
TTITLE19=The Bailes Brothers - As Long As I Live
TTITLE20=Don Gibson - Blue, Blue Day
TTITLE21=Joe Carson - Forbidden Wine
TTITLE22=Ben Hewitt - Way Down On Your Knees
TTITLE23=Robert Gordon - It Hurts Too Much
TTITLE24=Sleepy LaBeef - Good Rockin' Boogie
TTITLE25=Ronnie Dawson and High Noon - Fool About You
TTITLE26=Jon Emery - Christy Ann
TTITLE27=Jim Ford - Sounds Of Our Time
TTITLE28=Jim Diamond's Honky Tonk Monsoon - Bear Family
EXTD=
EXTT0=
EXTT1=
EXTT2=
EXTT3=
EXTT4=
EXTT5=Black Sabbath Cover
EXTT6=
EXTT7=
EXTT8=
EXTT9=
EXTT10=
EXTT11=
EXTT12=
EXTT13=
EXTT14=
EXTT15=
EXTT16=
EXTT17=
EXTT18=
EXTT19=
EXTT20=
EXTT21=
EXTT22=
EXTT23=
EXTT24=
EXTT25=
EXTT26=
EXTT27=
EXTT28=
PLAYORDER=
